<svg width="32" height="32" viewBox="0 0 32 32" fill="none" xmlns="http://www.w3.org/2000/svg">
<rect width="32" height="32" rx="16" fill="#014751"/>
<path fill-rule="evenodd" clip-rule="evenodd" d="M21.4884 19.1921L21.4884 19.1921L21.488 19.1917C21.3973 19.1267 21.3067 19.0616 21.2164 18.9964C20.1723 18.2415 19.2173 18.1828 18.4382 19.3973C18.0007 20.0791 17.3883 20.109 16.7479 19.8099C14.9825 18.9858 13.6192 17.7162 12.8206 15.869C12.4674 15.0518 12.472 14.3191 13.2985 13.7411C13.7361 13.4354 14.177 13.0737 14.1417 12.4058C14.0957 11.5349 12.0415 8.6244 11.2303 8.31722C10.8947 8.19008 10.5604 8.19836 10.2189 8.3165C8.31677 8.97498 7.52892 10.5853 8.28344 12.492C10.5344 18.1806 14.4957 22.1408 19.9487 24.5579C20.1754 24.6582 20.4204 24.7146 20.6042 24.757C20.6726 24.7727 20.7324 24.7865 20.7798 24.7999C22.0213 24.8128 23.4756 23.5815 23.8956 22.3595C24.251 21.3263 23.6339 20.8407 23.0202 20.3579L23.0202 20.3579C22.9357 20.2914 22.8512 20.225 22.7694 20.1572C22.3578 19.816 21.9228 19.5038 21.4884 19.1921ZM16.6552 8.90043C20.6417 9.53148 22.4802 11.4828 22.9878 15.616C22.9981 15.6992 22.9996 15.7914 23.0011 15.885V15.8851C23.0064 16.2213 23.012 16.5746 23.4259 16.5829C23.8881 16.5919 23.8709 16.1981 23.8555 15.8453C23.8525 15.776 23.8496 15.7083 23.8503 15.6456C23.8971 11.7529 20.5998 8.14413 16.7705 8.01108C16.7026 8.02114 16.6176 8.01514 16.5268 8.00873C16.2315 7.98787 15.875 7.96269 15.8465 8.47257C15.8265 8.83292 16.1462 8.85685 16.4439 8.87915C16.5175 8.88466 16.5898 8.89007 16.6552 8.90043ZM17.2553 10.0058L17.2553 10.0058C16.9086 9.94679 16.532 9.88269 16.4559 10.3479C16.3801 10.8135 16.7358 10.8637 17.0664 10.9103C17.1439 10.9213 17.2201 10.932 17.289 10.9479C19.7512 11.5143 20.6085 12.4368 21.0138 14.9509C21.0256 15.0237 21.0304 15.1046 21.0352 15.1867V15.1867C21.0548 15.5179 21.0756 15.8692 21.5605 15.7934C21.8995 15.7403 21.8897 15.4479 21.8809 15.185C21.8781 15.1001 21.8753 15.0182 21.8845 14.9485C21.9044 12.5347 19.8951 10.3378 17.4351 10.0337C17.3774 10.0266 17.3168 10.0162 17.2553 10.0058ZM17.0599 12.3241C17.154 12.0425 17.4052 12.014 17.6611 12.0075C18.7525 11.9796 20.0315 13.3259 20.0134 14.4908C20.0247 14.8092 19.9916 15.1444 19.6256 15.1894C19.3616 15.2215 19.1881 14.9934 19.1608 14.712C19.0599 13.6752 18.5284 13.0622 17.5184 12.8953C17.2158 12.8452 16.9186 12.7449 17.0599 12.3241Z" fill="white"/>
</svg>
