<svg width="14" height="19" viewBox="0 0 14 19" fill="none" xmlns="http://www.w3.org/2000/svg">
<path d="M6.62658 0.536499C2.97286 0.536499 0 3.50936 0 7.16344C0 8.11657 0.195083 9.02659 0.57954 9.86845C2.23637 13.494 5.41297 17.3218 6.34731 18.4085C6.41731 18.4897 6.51936 18.5365 6.62676 18.5365C6.73416 18.5365 6.83621 18.4897 6.90621 18.4085C7.84018 17.322 11.0168 13.4944 12.6742 9.86845C13.0588 9.02659 13.2537 8.11657 13.2537 7.16344C13.2533 3.50936 10.2805 0.536499 6.62658 0.536499ZM6.62658 10.6055C4.72861 10.6055 3.18434 9.06122 3.18434 7.16326C3.18434 5.26511 4.72861 3.72084 6.62658 3.72084C8.52454 3.72084 10.0688 5.26511 10.0688 7.16326C10.069 9.06122 8.52473 10.6055 6.62658 10.6055Z" fill="#014751"/>
</svg>
