<svg width="24" height="24" viewBox="0 0 24 24" fill="none" xmlns="http://www.w3.org/2000/svg">
<g opacity="0.16">
<path d="M22.9063 21.2597L17.7767 16.1301C19.0379 14.5158 19.7929 12.4813 19.7929 10.2714C19.7929 5.01499 15.5279 0.75 10.2714 0.75C5.01042 0.75 0.75 5.01507 0.75 10.2714C0.75 15.5278 5.01042 19.7929 10.2714 19.7929C12.4811 19.7929 14.5115 19.0422 16.1256 17.7811L21.2563 22.9074C21.2563 22.9074 21.2563 22.9074 21.2564 22.9075C21.713 23.364 22.45 23.3642 22.9068 22.9079C23.3644 22.4555 23.3644 21.7128 22.9069 21.2603C22.9067 21.2601 22.9065 21.2599 22.9063 21.2597ZM10.2714 17.4475C6.31022 17.4475 3.09082 14.228 3.09082 10.2714C3.09082 6.31471 6.31041 3.09082 10.2714 3.09082C14.2281 3.09082 17.452 6.31481 17.452 10.2714C17.452 14.2279 14.2282 17.4475 10.2714 17.4475Z" fill="#035063" stroke="#035063" stroke-width="0.5"/>
</g>
</svg>
