<svg width="32" height="32" viewBox="0 0 32 32" fill="none" xmlns="http://www.w3.org/2000/svg">
<rect width="32" height="32" rx="16" fill="#014751"/>
<path fill-rule="evenodd" clip-rule="evenodd" d="M15.7229 20.2583C15.1084 20.8642 14.5005 21.4594 13.8979 22.06C13.6872 22.27 13.4501 22.3859 13.1479 22.3694C12.9421 22.3582 12.8266 22.2657 12.7635 22.0672C12.3023 20.6157 11.8336 19.1668 11.3745 17.7147C11.3297 17.5733 11.2624 17.5054 11.1221 17.4619C10.0346 17.125 8.94936 16.7808 7.86548 16.4324C7.705 16.3808 7.54251 16.3145 7.40327 16.2209C7.16093 16.058 7.12634 15.7991 7.34765 15.6116C7.55213 15.4383 7.79455 15.2932 8.04291 15.1937C9.41697 14.6431 10.798 14.1104 12.1766 13.5713C15.4928 12.2745 18.8091 10.9779 22.125 9.68053C22.7607 9.43181 23.2546 9.77675 23.1951 10.4713C23.1559 10.9291 23.0382 11.381 22.9438 11.8329C22.209 15.3509 21.4713 18.8683 20.7345 22.3859C20.7331 22.3927 20.7326 22.3997 20.7311 22.4064C20.5509 23.2111 19.9739 23.4311 19.3159 22.9406C18.1737 22.089 17.0344 21.2335 15.8936 20.3799C15.8397 20.3396 15.7839 20.3017 15.7229 20.2583ZM13.1991 21.3662C13.2168 21.2836 13.2292 21.2455 13.2328 21.2066C13.3052 20.4155 13.381 19.6247 13.4452 18.8328C13.4595 18.6571 13.5112 18.5273 13.6454 18.4053C15.3763 16.8311 17.1019 15.2508 18.8289 13.6721C19.3202 13.2231 19.8134 12.7762 20.2999 12.3219C20.351 12.2742 20.3621 12.1826 20.3918 12.1113C20.3166 12.0897 20.2324 12.0351 20.1682 12.0532C20.0199 12.0951 19.8705 12.1549 19.7404 12.2377C17.1727 13.874 14.6084 15.5156 12.0406 17.1517C11.91 17.235 11.8727 17.3035 11.9251 17.463C12.3317 18.7004 12.7265 19.9418 13.1255 21.1818C13.1412 21.2304 13.1632 21.2769 13.1991 21.3662Z" fill="white"/>
</svg>
