<svg width="32" height="32" viewBox="0 0 32 32" fill="none" xmlns="http://www.w3.org/2000/svg">
<rect width="32" height="32" rx="16" fill="#014751"/>
<path fill-rule="evenodd" clip-rule="evenodd" d="M13.5407 11.6699C13.37 11.2613 13.2406 11.2457 12.9821 11.2353C12.8941 11.2302 12.7961 11.2251 12.6873 11.2251C12.351 11.2251 11.9994 11.3234 11.7873 11.5407C11.5288 11.8045 10.8873 12.4201 10.8873 13.6824C10.8873 14.9448 11.8079 16.1656 11.9321 16.3365C12.0614 16.507 13.7268 19.1352 16.3128 20.2063C18.335 21.0444 18.9351 20.9667 19.3953 20.8685C20.0677 20.7238 20.9107 20.2268 21.1228 19.6269C21.3349 19.0267 21.3349 18.5145 21.2727 18.4059C21.2107 18.2973 21.0399 18.2354 20.7814 18.1059C20.5229 17.9765 19.266 17.3557 19.0282 17.2729C18.7954 17.1851 18.573 17.2161 18.3973 17.4645C18.149 17.8111 17.906 18.163 17.7094 18.375C17.5543 18.5405 17.3007 18.5613 17.0887 18.4733C16.8042 18.3545 16.0078 18.0748 15.0251 17.2006C14.2647 16.523 13.7476 15.6798 13.5977 15.4263C13.4477 15.1677 13.5822 15.0175 13.7011 14.8779C13.8305 14.7175 13.9545 14.6038 14.0838 14.4536C14.2132 14.3036 14.2855 14.2261 14.3683 14.0501C14.4563 13.8794 14.3941 13.7034 14.3321 13.574C14.27 13.4444 13.7528 12.182 13.5407 11.6699ZM15.9973 7.19995C11.1461 7.19995 7.19995 11.1472 7.19995 15.9998C7.19995 17.9243 7.82063 19.7092 8.87566 21.1577L7.7791 24.4273L11.1616 23.3463C12.5528 24.2671 14.213 24.8 16.0026 24.8C20.8538 24.8 24.8 20.8525 24.8 16.0001C24.8 11.1474 20.8538 7.20023 16.0026 7.20023H15.9975V7.19995H15.9973Z" fill="white"/>
</svg>
